<?xml version="1.0" standalone="no"?>
<!DOCTYPE svg PUBLIC "-//W3C//DTD SVG 1.1//EN" "http://www.w3.org/Graphics/SVG/1.1/DTD/svg11.dtd" >
<!--
2013-9-30: Created.
-->
<svg>
<metadata>
Created by iconfont
</metadata>
<defs>

<font id="iconfont" horiz-adv-x="1024" >
  <font-face
    font-family="iconfont"
    font-weight="500"
    font-stretch="normal"
    units-per-em="1024"
    ascent="896"
    descent="-128"
  />
    <missing-glyph />
    
    <glyph glyph-name="caidan" unicode="&#58912;" d="M206.558384 643.878788C182.833131 643.878788 161.616162 622.661818 161.616162 598.936566c0-23.725253 21.21697-43.688081 44.942222-43.688081 23.712323 0 43.688081 19.975758 43.688081 43.688081 0 23.725253-19.975758 44.942222-43.688081 44.942222z m653.860202-44.308687c0-19.419798-14.157576-35.167677-31.599192-35.167677H348.819394c-17.441616 0-31.586263 15.747879-31.586263 35.167677s14.144646 35.167677 31.586263 35.167677h480c17.441616 0 31.599192-15.747879 31.599192-35.167677zM206.558384 427.351919c-23.725253 0-44.942222-21.21697-44.942222-44.942222 0-23.725253 21.21697-43.688081 44.942222-43.688081 23.712323 0 43.688081 19.975758 43.688081 43.688081s-19.975758 44.942222-43.688081 44.942222z m653.860202-44.308687c0-19.419798-14.157576-35.167677-31.599192-35.167676H348.819394c-17.441616 0-31.586263 15.747879-31.586263 35.167676 0 19.432727 14.144646 35.167677 31.586263 35.167677h480c17.441616 0 31.599192-15.734949 31.599192-35.167677z m0 0M206.558384 210.825051C182.833131 210.825051 161.616162 189.608081 161.616162 165.882828c0-23.725253 21.21697-43.688081 44.942222-43.688081 23.712323 0 43.688081 19.975758 43.688081 43.688081 0 23.725253-19.975758 44.942222-43.688081 44.942223z m653.860202-44.308687c0-19.419798-14.157576-35.167677-31.599192-35.167677H348.819394c-17.441616 0-31.586263 15.747879-31.586263 35.167677 0 19.432727 14.144646 35.167677 31.586263 35.167676h480c17.441616 0 31.599192-15.734949 31.599192-35.167676z m0 0"  horiz-adv-x="1024" />

    
    <glyph glyph-name="shuangfanhui2" unicode="&#59067;" d="M561.6 602.72l3.2-2.432 224-192a32 32 0 0 0 2.816-45.888l-2.784-2.688-224-192a32 32 0 0 0-44.544 45.76l2.88 2.816L718.848 384l-195.68 167.68a32 32 0 0 0-5.888 41.92l2.432 3.2a32 32 0 0 0 41.92 5.92z m-240 0l3.2-2.432 224-192a32 32 0 0 0 2.816-45.888l-2.784-2.688-224-192a32 32 0 0 0-44.544 45.76l2.88 2.816L478.848 384l-195.68 167.68a32 32 0 0 0-5.888 41.92l2.432 3.2a32 32 0 0 0 41.92 5.92z"  horiz-adv-x="1024" />

    
    <glyph glyph-name="up" unicode="&#58890;" d="M229.84920692443848 250.16540908813465l247.1923828125-247.1923828125c19.30572509765625-19.306497573852536 50.609550476074226-19.307270050048828 69.91527557373047 0l247.1923828125 247.1923828125c19.30572509765625 19.306497573852536 19.30572509765625 50.609550476074226 0 69.91682052612305-19.30572509765625 19.308815002441406-50.609550476074226 19.308815002441406-69.91527557373047 0l-162.79626846313477-162.79935836791992v572.7856922149659c0 27.302398681640625-22.132987976074222 49.4384765625-49.4384765625 49.4384765625-27.30317115783691 0-49.4384765625-22.13607788085937-49.4384765625-49.4384765625v-572.7856922149659l-162.79626846313477 162.79626846313477c-9.652862548828125 9.653635025024414-22.30602264404297 14.482383728027344-34.957637786865234 14.482383728027344-12.650842666625977 0-25.30400276184082-4.8264312744140625-34.956865310668945-14.479293823242186-19.307270050048828-19.310359954833984-19.307270050048828-50.609550476074226 0-69.91682052612305z"  horiz-adv-x="1024" />

    
    <glyph glyph-name="luotuo" unicode="&#58889;" d="M933.77744 403.52533333c-3.176 31.528 2.248 28.552 12.688 60.368l5.472 18.264c1.816 6.68 3.68 14.312 5.592 23.328 0.888 4.08 1.272 8.088 1.624 12.096 8.576-6.928 19.544-16.208 27.672-24.952 15.224-16.424 34.96-2.408 26 0.704-8.96 3.136-25.016 21.272-39.664 48.68-4.208 7.872-10.824 14.176-17.968 19.456-6.76 23.352-19.456 41.56-29.872 48.92-17.824 12.744-61.552 88.8-139.84 131.744-78.312 42.944-81.392-27.976-135.104-22.728-53.72 5.304-58.952 45.888-118.216 48.056-59.264 2.16-108.488-97.952-156.52-129.936-34.672-23.104-45.904-32.144-76.608-15.936-44.376 23.328-43.968 89.672-43.968 89.672s-3.272 35.008-16.44 47.696L225.41744 771.73333333s2.704 23.056-2.84 21.104c-5.592-1.976-26.048-4.088-30.248-7.2-6.408-4.84-31.616-0.408-55.272-15.392-16.008-10.096-27.864-10.2-33.072-11.608-5.168-1.296-3.92 7.552-12.328 6.768-7.12-0.672-7.312-9.44-7.312-9.44s-39.136-6.144-55.224-15.48c-16.008-9.304-22.272-24-22.512-33.88-0.24-6.224-12.024-29.656-3.2-39.392 8.864-9.656 13.832-4.68 13.832-4.68s-6.504-11.088 3.632-15.72c10.136-4.712 19.328 8.632 24.616 9.984 5.256 1.352 27.456-4.224 41.72-8.904 4.688-1.52 11.664-2.224 18.88-2.52l20.84 0.024c5.808 0.216 9.944 0.544 9.944 0.544s8.6-7.544 15.264-10.2c9.872-5.544 0.384-48.648 2.344-85.64 2.392-43.888 9.416-144.248 107.096-173.392 97.736-29.144 145.384 75.032 152.168 65.616 19.576-27.032 43.896-36.424 42.416-45.704-3.104-20.048-44.592-63.64-78.192-122.52-22.816-40.208-4.608-63.992 27.96-126.824 27.312-52.544 32.208-72.272 26.408-105.008-5.784-32.768 21.48-16.504 35.368-4.224 13.856 12.392 24.52 34.392 8.984 46-13.072 9.712-46.048 104.584-59.096 144.304-6.696 20.456 62.8 93.056 64.568 89.888 6.24-10.8 18.592-39.264 27.864-83.04 9.344-43.808 28.152-108.016 27.96-133.048-0.24-25.008-28.336-88.672-51.92-108.776-23.584-20.104 46.76-20.784 70.232-16.296 23.416 4.44 5.688 24.896 4.44 42.08-1.24 17.184 3.224 60.904 10.64 120.136 7.336 59.256-15.536 131.336-23.56 156.368-8.08 25.056 1.816 57.848 15.768 82.664 14 24.84 22.176 9.064 103.616 20.784 81.488 11.632 124.376 36.232 139.648 40.744 15.176 4.576-8.672-43.616-10.416-93.624-1.624-44.992 55.824-101.488 51.328-143.592-4.512-42.104-103.224-177.504-114.632-185.728-31.736-23.056-36.536-18.504-47.192-34.928-9.848-15.232 58.016-18.504 77.16-8.6 20.72 10.712 0.144 12.504 9.896 34.256 9.848 21.864 130.304 155.688 132.456 178.312 2.984 30.896-19.88 95.136-18.424 104.304 14.888-14.048 32.112-30.248 36.32-35.096 35.512-41.024 52.088-39.608 50.544-56.792-2.752-31.2-29.968-184.592-37.376-191.704-13.024-12.48-23.8-18.264-38.328-35.152-13.856-16.264 28.656-10.28 44.016-11.496 23.416-1.792 21.6 8.904 21.648 19.856 0.144 10.736 8.072 53.68 28.552 119.952 21.24 68.432 31.544 87.152 31.28 118.272-0.432 50.552-83.304 121.04-89.904 185.432"  horiz-adv-x="1024" />

    
    <glyph glyph-name="guanbi" unicode="&#58887;" d="M512-53.396915079999985C270.39027547-53.396915079999985 74.60308492 142.39027547 74.60308492 384S270.39027547 821.39691508 512 821.39691508 949.39691508 625.60972453 949.39691508 384 753.60972453-53.396915079999985 512-53.396915079999985z m0 833.1369811C293.99582327 779.74006603 116.25993397 602.0041767299999 116.25993397 384S293.99582327-11.74006602999998 512-11.74006602999998 907.74006603 165.99582326999996 907.74006603 384 730.00417673 779.74006603 512 779.74006603zM543.93691762 384l169.40451948 169.40451948c8.3313698 8.3313698 8.3313698 22.21698617-1e-8 31.93691762l-1.38856163 1.38856164c-8.3313698 8.3313698-22.21698617 8.3313698-30.54835598 0L512 415.93691762 342.59548052 585.3414371c-8.3313698 8.3313698-22.21698617 8.3313698-30.54835598-1e-8l-1.38856163-1.38856163c-8.3313698-8.3313698-8.3313698-22.21698617 0-31.93691761L480.06308238 384 310.6585629 214.59548052000002c-8.3313698-8.3313698-8.3313698-22.21698617 1e-8-31.93691762l1.38856163-1.38856164c8.3313698-8.3313698 22.21698617-8.3313698 30.54835598 0L512 352.06308237999997l169.40451948-169.40451948c8.3313698-8.3313698 22.21698617-8.3313698 30.54835598 1e-8l1.38856163 1.38856163c8.3313698 8.3313698 8.3313698 22.21698617 0 31.93691761L543.93691762 384z"  horiz-adv-x="1024" />

    
    <glyph glyph-name="location" unicode="&#58886;" d="M512.103132 575.879021a106.221743 106.221743 0 1 0-75.507022-31.354611A106.221743 106.221743 0 0 0 512.103132 575.879021m0 63.989002a170.850635 170.850635 0 1 1 120.939214-49.911422A169.570855 169.570855 0 0 1 512.103132 639.868023zM805.172761 771.685367a407.609942 407.609942 0 0 1-586.139257 0 431.285873 431.285873 0 0 1 0-599.576948L512.103132-128l293.069629 300.108419a431.285873 431.285873 0 0 1 0 599.576948z m-44.152411-557.344207l-248.917218-255.956007-248.917217 255.956007a365.377201 365.377201 0 0 0 0 508.712565 346.82039 346.82039 0 0 0 497.834435 0 365.377201 365.377201 0 0 0 0-508.712565z"  horiz-adv-x="1024" />

    
    <glyph glyph-name="daocha" unicode="&#58888;" d="M734.793202 650.636892c-0.855484 0-1.529843-0.429789-2.326998-0.48914l0 0.367367c-24.739451 0-32.333406-7.286963-63.630203-62.343907-31.355125-55.116295-116.786867-257.272481-91.492784-306.816874 25.291013-49.545416 118.561279-30.314423 118.561279-82.860173l0-95.04775 0-115.253954c0-21.434172 17.393135-38.827307 38.886659-38.827307 21.37482 0 38.767955 17.393135 38.767955 38.827307L773.559111 611.809585C773.561158 633.243757 756.169045 650.636892 734.793202 650.636892zM421.852864 650.636892l0-90.576925c0-6.671956-5.389754-12.062733-12.003382-12.062733-6.67605 0-12.065803 5.389754-12.065803 12.062733l0 90.576925-23.823592 0 0-90.576925c0-6.671956-5.386684-12.062733-12.062733-12.062733s-12.065803 5.389754-12.065803 12.062733l0 90.576925-23.027459 0 0-90.576925c0-6.671956-5.389754-12.062733-12.062733-12.062733-6.615675 0-12.065803 5.389754-12.065803 12.062733l0 90.576925-30.255071 0L250.437819 405.734136c0-47.648207 30.373775-87.942935 72.632227-103.43886l0-314.103838c0-21.434172 17.393135-38.827307 38.827307-38.827307s38.824237 17.393135 38.824237 38.827307l0 314.656423c41.339524 16.044418 70.735018 55.913451 70.735018 102.887298l-19.290345 244.902756L421.852864 650.637915z"  horiz-adv-x="1024" />

    
    <glyph glyph-name="feiji-back" unicode="&#58883;" d="M137.383 645.973l162.743-162.615-90.028-463.422 77.918-76.455 154.157 415.895 209.804-188.636-38.229-194.372 36.812-35.893 130.874 192.006 172.733 106.95-36.68 36.037-185.235-25.486-190.696 201.632 412.496 147.526-77.919 76.496-459.702-79.605-163.392 163.659c-74.028 72.566-132.563 79.2-165.33 46.793-32.665-32.019-24.078-87.658 49.676-160.512z"  horiz-adv-x="1024" />

    
    <glyph glyph-name="unie610" unicode="&#58970;" d="M911.008 768.992l-540.992-540-260 260q-8 8-19.488 8t-20-8-8.512-19.488 8.992-20.512l280-280q4-4 8.992-6.016t10.016-2.016q12 0 20 8l560 560q8 8.992 8 20.512t-8 19.488-19.488 8-19.488-8z"  horiz-adv-x="1024" />

    
    <glyph glyph-name="tianxie" unicode="&#59155;" d="M906.9 364.5c-1.3 6.7-3.3 13.4-5.9 19.3l-0.4 0.9c-6.2 13.7-14.8 26.7-25.5 38.6-11.2 12.5-22.1 21.5-33.4 27.6-5.8 3-11.6 5.4-18.5 7.5-7.9 2.4-15.8 3.7-24.2 4.1-1.4 0-2.3 0.1-3.2 0.1-8.5 0-17.1-1.3-25.5-3.9-9.9-3.1-19.4-8.2-28.3-15.3l-1.1-0.9c-4.1-3.5-8.9-7.9-14.4-13.2-4.9-4.8-9.1-8.8-12.1-11.7l-0.3-0.3-0.2 0.3-5.7-5.9-30.1-28.7 1.2-1.2-93.5-96.4-67.6-69.7c-11.5-11.8-18.9-19.5-24.7-25.7l-12-12.6c-6.4-6.6-11.5-12.9-15.5-19.2-3.3-5.2-6.3-10.9-8.9-17-2.5-5.1-5-11.5-7.9-20.6-2.5-7.6-5.1-16.1-7.7-25.3-2.5-8.6-4.9-17.1-7.2-25.4-2.9-10.8-4.6-18.5-5.5-24.9-3.2-21.5 0.9-39.7 12.2-54.3 6.6-8.3 21.7-22.2 48.2-22.2 3.2 0 6.6 0.2 10.1 0.6l2 0.3c5.4 0.9 12.2 2.4 22.1 5.1 8.4 2.3 17.2 4.9 27.1 8.2 9.3 3.1 18.2 6.3 26.6 9.5 9.1 3.5 16.2 6.5 21.7 9.3 7.4 3.4 14.4 7.8 20.9 13 4.3 3.4 8.2 6.7 11.8 9.9 3.1 2.6 6.8 6.3 13.8 13.5 6.3 6.6 14.1 14.7 23.6 24.5 8.2 8.7 17.8 18.5 31 31.8l35.7 37.2 126.2 130.2c2.4 2.2 4.9 4.6 7.4 7.2 1.7 1.8 3.9 3.9 6.5 6.5 2.9 2.8 6.3 6.3 10.2 10.3l1.4 1.5c7.3 8.2 12.8 17.3 16.4 27 3.5 9.4 5.3 19.3 5.3 29.2 0.1 7.1-0.7 14.3-2.1 21.2zM789.8 262.9l-91.4-94.2-35.1-36.6c-13-13.1-23-23.4-31.6-32.5-8.7-9-16.5-17.2-23.2-24.2-2.5-2.6-9.2-9.4-10.4-10.3l-0.5-0.4c-2.7-2.6-5.9-5.3-9.8-8.3-3.5-2.8-7.1-5-10.9-6.7l-0.2-0.1c-4-2-9.9-4.5-17.5-7.5-7.9-3-16.2-5.9-24.6-8.8-9-3-17-5.4-24.3-7.4-7.8-2.1-13.3-3.4-16.8-4-1.4-0.2-2.8-0.2-4.1-0.2-2.6 0-6.1 0.4-7.5 2.2-1.3 1.6-2.5 5.2-1.3 13.4 0.5 3.9 1.9 9.7 4 17.8 2.4 8.7 4.7 16.8 7 24.8 2.6 9 5 16.7 7.2 23.6 2.3 7 4.1 11.8 5.4 14.2l0.2 0.4c1.6 4 3.5 7.6 5.6 10.9 2 3.1 4.9 6.8 8.9 10.8l1 1c2.1 2.2 5.9 6.2 11.4 11.9 5.7 6.1 12.9 13.6 24.1 25.1l67.6 69.7 91.1 94 75.7-78.6z m67.1 80.1c0-3.4-0.6-6.8-1.9-10.2-1.3-3.4-3.3-6.6-6.1-9.8-3.4-3.5-6.5-6.6-9.3-9.4-2.7-2.6-5.1-5.1-7.3-7.3l-3.2-3.2-75.9 78.2c2.8 2.6 5.8 5.6 9.2 8.9 4.5 4.4 8.5 8.1 11.8 10.9 3.7 2.9 7.4 5 11.2 6.2 3.5 1.1 7 1.6 10.4 1.6h1c4-0.2 7.7-0.8 11.1-1.8 3.8-1.2 6.9-2.4 9.5-3.8 5.7-3.1 12.2-8.6 19.2-16.4 7.1-7.8 12.6-16.2 16.5-24.8 1-2.4 1.9-5.3 2.5-8.6 1-3.4 1.3-6.8 1.3-10.5zM781.3 778.9c-9.8 10.1-22.9 15.7-36.7 15.8l-577.8 5.1c-13.8 0.1-27-5.3-37-15.2-10.4-10.3-16.4-24.8-16.4-39.8V26c0-30.3 23.7-55 52.9-55h211.1c13.8 0 25 11.2 25 25s-11.2 25-25 25h-211c-1 0-2.9 1.9-2.9 5V744.8c0 2.5 1.1 3.8 1.6 4.3s0.9 0.7 1.3 0.7l577.8-5.1c0.4 0 0.9-0.3 1.4-0.7 0.5-0.5 1.6-1.9 1.5-4.4l-3.2-210.7c-0.2-13.8 10.8-25.2 24.6-25.4h0.4c13.6 0 24.8 10.9 25 24.6l3.2 210.7c0.2 15-5.6 29.6-15.8 40.1zM637.9 610.4H260.5c-13.8 0-25 11.2-25 25s11.2 25 25 25h377.4c13.8 0 25-11.2 25-25s-11.2-25-25-25zM535.4 475.6h-275c-13.8 0-25 11.2-25 25s11.2 25 25 25h275c13.8 0 25-11.2 25-25 0-13.9-11.1-25-25-25zM466.6 340.7H260.5c-13.8 0-25 11.2-25 25s11.2 25 25 25h206.1c13.8 0 25-11.2 25-25s-11.2-25-25-25z"  horiz-adv-x="1024" />

    
    <glyph glyph-name="wangshang" unicode="&#59529;" d="M544 32V588.8l217.6-217.6c12.8-12.8 32-12.8 44.8 0 12.8 12.8 12.8 32 0 44.8L531.2 691.2c-12.8 12.8-32 12.8-44.8 0L217.6 422.4c-12.8-12.8-12.8-32 0-44.8 12.8-12.8 32-12.8 44.8 0l217.6 217.6v-563.2c0-19.2 12.8-32 32-32 12.8 0 32 12.8 32 32z m51.2 684.8M864 768h-704c-19.2 0-38.4-19.2-38.4-32s19.2-32 32-32h704c25.6 0 38.4 12.8 38.4 32s-12.8 32-32 32z"  horiz-adv-x="1024" />

    
    <glyph glyph-name="dianpu" unicode="&#58974;" d="M856.064 352.256c-13.312 0-24.064-10.752-24.064-24.064V56.32c0-22.016-17.92-39.936-39.936-39.936H768v192c0 61.952-50.176 112.128-112.128 112.128s-112.128-50.176-112.128-112.128v-192H231.936c-22.016 0-39.936 17.92-39.936 39.936v271.872c0 13.312-10.752 24.064-24.064 24.064s-24.064-10.752-24.064-24.064V56.32c0-48.64 39.424-88.064 88.064-88.064h560.128c48.64 0 88.064 39.424 88.064 88.064v271.872c0 12.8-10.752 24.064-24.064 24.064z m-119.808-336.384h-159.744v192c0 44.032 35.84 79.872 79.872 79.872s79.872-35.84 79.872-79.872v-192zM957.44 501.248l-0.512 2.048L892.928 706.56c-11.776 36.864-45.568 61.44-83.968 61.44H215.04c-38.4 0-72.192-24.576-83.968-61.44L67.072 503.296l-0.512-2.048c-10.752-46.08 14.848-94.208 59.392-111.104 10.752-4.096 22.528-6.656 34.304-6.656 34.304 0 66.048 18.432 83.456 48.128 2.048 3.072 3.584 6.144 4.608 9.728C263.168 407.04 296.96 384 335.872 384s73.216 23.04 88.064 57.856c14.848-34.304 49.152-57.856 88.064-57.856s73.216 23.04 88.064 57.856c14.848-34.304 49.152-57.856 88.064-57.856s73.216 23.04 88.064 57.856c1.536-3.072 3.072-6.656 4.608-9.728 16.896-29.696 49.152-48.128 83.456-48.128 11.776 0 23.04 2.048 34.304 6.144 44.032 17.408 69.632 65.024 58.88 111.104zM881.152 435.2c-5.632-2.048-10.752-3.072-16.896-3.072-17.408 0-33.28 9.216-41.984 23.552-2.56 4.608-4.608 10.24-5.632 15.36-3.584 18.944-19.968 32.768-39.424 32.768h-3.072c-19.456 0-35.84-13.824-39.424-32.768-4.096-23.04-24.064-39.424-47.104-39.424s-43.008 16.384-47.104 39.424c-3.584 18.944-19.968 32.768-39.424 32.768h-3.072c-19.456 0-35.84-13.824-39.424-32.768-4.096-23.04-24.064-39.424-47.104-39.424s-43.008 16.384-47.104 39.424c-3.584 18.944-19.968 32.768-39.424 32.768h-3.072c-19.456 0-35.84-13.824-39.424-32.768-4.096-23.04-24.064-39.424-47.104-39.424s-43.008 16.384-47.104 39.424c-3.584 18.944-19.968 32.768-39.424 32.768H245.76c-18.944 0-35.84-13.824-39.424-32.768-1.024-5.632-3.072-10.752-5.632-15.36-8.192-14.848-24.576-23.552-41.984-23.552-5.632 0-11.264 1.024-16.896 3.072-22.528 8.704-34.816 31.232-30.208 54.784l64.512 202.24c5.12 16.896 20.48 28.16 38.4 28.16H808.96c17.408 0 32.768-11.264 38.4-28.16L911.36 489.984c4.608-23.552-8.192-46.08-30.208-54.784z m-449.024-338.944c26.624 0 48.128 21.504 48.128 48.128V240.64c0 26.624-21.504 48.128-48.128 48.128h-128c-26.624 0-48.128-21.504-48.128-48.128v-96.256c0-26.624 21.504-48.128 48.128-48.128h128z m-144.384 47.616v96.256c0 8.704 7.168 15.872 15.872 15.872h128c8.704 0 15.872-7.168 15.872-15.872v-96.256c0-8.704-7.168-15.872-15.872-15.872h-128c-8.192 0-15.872 7.168-15.872 15.872z"  horiz-adv-x="1024" />

    
    <glyph glyph-name="shoujiduihao" unicode="&#58911;" d="M771.976392 259.858536c-92.855936 0-168.101233-75.245297-168.101233-168.101233s75.245297-168.101233 168.101233-168.101233 168.099427 75.245297 168.099427 168.101233c0.092117 92.778269-75.241684 168.101233-168.099427 168.101233zM737.352971-15.199788L652.422726 69.293352l39.552594 39.724185 45.460737-45.193418 110.569531 110.04934 39.563431-39.738635-150.216048-149.334612zM770.27674 282.181603c11.036001 0 21.835387-0.993421 32.356615-2.799641V807.141227c0 49.069564-39.78379 88.860579-88.853354 88.860579H269.478913c-49.069564 0-88.85516-39.791015-88.855161-88.860579v-844.169178c0-49.062339 39.785596-88.853354 88.855161-88.853354h444.301088c25.218436 0 47.944289 10.559159 64.106341 27.43828a200.165241 200.165241 0 0 0-7.609602-0.18604 189.725292 189.725292 0 0 0-79.020296 17.173534 191.146787 191.146787 0 0 0-78.778262 66.654917 189.037123 189.037123 0 0 0-22.167731 44.422162h-365.2537V740.498954h533.149024v-458.741813a188.22613 188.22613 0 0 0 12.070965 0.424462zM491.625844-3.240809c26.10529 0 47.263345-21.158055 47.263345-47.261539 0-26.099871-21.158055-47.263345-47.263345-47.263344-26.099871 0-47.257926 21.163473-47.257926 47.263344 0 26.103484 21.158055 47.261538 47.257926 47.261539zM225.056751 784.924728v22.216499c0 24.54291 19.872027 44.42758 44.422162 44.42758h444.301088c24.550135 0 44.42758-19.882864 44.42758-44.42758v-22.216499H225.056751z"  horiz-adv-x="1024" />

    
    <glyph glyph-name="feiji" unicode="&#58937;" d="M570.3 339.3L423.3 200l23-162.3-58.2-56.6L284 149.4 100.3 275l55.1 56.6 169.9-33.7 137.8 154.6L98.8 587.2l94.9 96.4 405.7-78.1L734 740.3c41.3 41.3 82.7 64.3 117.9 64.3 19.9 0 36.7-7.7 50.5-21.4 7.7-7.7 21.4-24.5 21.4-52 0-35.2-19.9-76.5-62.8-119.4L724.9 477l68.8-401-96.4-98-127 361.3z m143.8-290.9l38.3 38.3-68.9 402.6 150 150c49 49 64.3 93.4 41.3 116.3-6.1 6.1-15.3 10.7-24.5 10.7-13.8 0-42.9-7.7-88.8-53.6l-150-150-405.7 78.1-38.1-39.8 362.8-134.7-191.4-209.7-148.5 29.1-7.7-18.4 134.7-94.9L382 68.3l18.4 6.1-19.9 139.3 205.1 194.4 128.5-359.7zM570.3 345.4L418.7 201.5l23-162.3-52-52-102.6 165.3-180.6 124 50.5 52 169.9-33.7L469.3 454 104.9 588.8l90.3 91.8 405.7-78.1 136.2 136.2C776.9 780 818.2 803 851.9 803c18.4 0 35.2-6.1 47.5-19.9 7.7-7.7 19.9-24.5 21.4-50.5 0-35.2-19.9-73.5-61.2-116.3L721.8 478.6l68.9-401.1-90.3-93.4-130.1 361.3z m142.3-301.6l42.9 42.9-68.9 402.6 148.5 148.5c50.5 50.5 65.8 96.4 41.3 120.9-7.7 7.7-15.3 10.7-26 10.7-13.8 0-44.4-7.7-90.3-55.1L611.6 565.8l-405.7 78.1-42.9-44.4 362.8-131.6-188.2-208.2-148.5 29.1-9.2-23 136.2-94.9L382 65.3l21.4 7.7-19.9 140.8L584 403.6l128.6-359.8z"  horiz-adv-x="1024" />

    
    <glyph glyph-name="dianhua" unicode="&#59172;" d="M718.62 440.723c0-20.262 13.49-33.753 33.751-33.753s33.754 13.491 33.754 33.753a203.156 203.156 0 0 1-202.57 202.569c-20.26 0-33.752-13.49-33.752-33.752s13.544-33.754 33.753-33.754A135.437 135.437 0 0 0 718.62 440.723z m135.064 0c0-20.262 13.49-33.753 33.751-33.753s33.754 13.491 33.754 33.753c0 185.666-151.967 337.633-337.632 337.633-20.263 0-33.754-13.545-33.754-33.806s13.544-33.752 33.753-33.752c148.554 0 270.128-121.574 270.128-270.075zM397.89 558.884c37.165 37.112 40.524 94.54 6.772 135.064L299.99 825.598c-33.752 43.885-97.899 50.657-141.836 16.904-3.359-3.413-6.718-3.413-6.718-6.772l-91.18-91.18c-87.768-87.767 37.165-324.089 263.408-550.28 226.14-226.19 459.047-347.762 546.814-263.354l91.18 91.18c40.526 40.524 40.526 104.67 0 141.782l-6.718 6.772-131.703 104.67c-40.472 33.752-97.847 30.394-135.012-6.771l-57.374-57.428c-60.787 37.165-114.8 77.69-162.097 124.932-47.243 47.296-87.715 101.312-124.88 162.099l54.015 60.733z m-47.243 91.18c10.131-13.544 10.131-33.806-3.413-43.937l-74.277-77.636a35.886 35.886 0 0 1-6.718-40.525 875.543 875.543 0 0 1 148.554-199.157A875.648 875.648 0 0 1 613.95 140.255a35.886 35.886 0 0 1 40.523 6.772l77.637 77.636c13.544 13.49 30.393 13.49 43.937 3.36l131.65-108.03s3.36 0 3.36-3.36a32.633 32.633 0 0 0 0-47.296l-91.18-91.18c-43.83-43.83-253.17 67.558-452.38 263.409C168.34 437.363 60.31 650.011 104.194 693.946l94.486 94.541c13.544 10.131 37.165 10.131 47.296-6.772l104.67-131.704z"  horiz-adv-x="1024" />

    
    <glyph glyph-name="kefu" unicode="&#58910;" d="M1040.07067 550.549707a483.692319 483.692319 0 0 1-927.032699 0 144.417465 144.417465 0 0 1 0-281.932625 27.078275 27.078275 0 0 1 32.918687-17.521236 27.609221 27.609221 0 0 1 18.052184 33.98058 419.978731 419.978731 0 0 0-18.052184 123.710549A430.066716 430.066716 0 1 0 697.07919-3.758504a80.703878 80.703878 0 0 1-66.899267 37.166259h-106.189312a80.703878 80.703878 0 1 1 0-159.283969h106.189312a80.703878 80.703878 0 0 1 80.172931 72.739679 486.877998 486.877998 0 0 1 329.717816 326.532136 5.840412 5.840412 0 0 1 0-2.654732 144.417465 144.417465 0 0 1 0 281.932624zM103.480933 488.959906c0-4.778519-3.716626-10.087985-5.309465-14.866504 1.061893 5.309466 1.061893 10.618931 5.309465 14.866504z m-4.247572-151.319771c0-4.778519 3.716626-9.557038 5.309465-14.335557-2.123786 6.371359-5.309466 9.557038-5.309465 14.335557z m955.703813-7.964198a131.143801 131.143801 0 0 1 5.309465 15.39745 131.143801 131.143801 0 0 0-5.309465-15.39745z m0 159.283969c0-4.778519 3.716626-10.087985 5.309465-14.866504-2.654733 5.309466-5.309466 10.618931-5.309465 14.866504zM580.801893 113.580686a269.720854 269.720854 0 0 1 254.323404 180.521831 27.609221 27.609221 0 0 1-16.459344 34.511527 27.078275 27.078275 0 0 1-34.511526-16.99029 215.033358 215.033358 0 0 0-406.705067 0 26.547328 26.547328 0 0 1-33.98058 18.052183 26.547328 26.547328 0 0 1-16.459344-34.511527 268.128014 268.128014 0 0 1 253.792457-181.052777z"  horiz-adv-x="1155" />

    
    <glyph glyph-name="shatanyezishulvyoufengjingxianxing" unicode="&#59165;" d="M142.222-42.667c0 107.975 122.766 195.869 275.911 199.026l9.444 0.085c59.79 101.917 69.035 215.723 27.79 341.39l-138.951-97.28a56.889 56.889 0 0 0-19.627-8.76l-5.319-0.967-5.404-0.484A56.889 56.889 0 0 0 226.93 444.9c-1.508 37.745 4.039 72.362 16.554 103.537l-37.262-13.596a56.889 56.889 0 0 0-12.63-3.015l-4.323-0.342a56.889 56.889 0 0 0-59.306 54.33c-0.854 19.256 0.71 35.583 5.12 49.294 19.285 60.302 73.045 112.327 142.933 137.756 91.847 33.422 188.7 12.8 236.914-48.128 48.128 60.871 144.981 81.493 236.8 48.071 68.352-24.86 121.315-75.207 141.653-133.973 5.035-14.507 6.94-31.972 6.173-52.622a56.889 56.889 0 0 0-76.317-51.314l-46.137 16.782c12.374-31.431 17.494-67.413 15.36-107.605a56.889 56.889 0 0 0-84.992-46.365l-4.466 2.845-23.722 16.583c37.319-108.886 39.737-208.071 7.225-297.586l-0.683-0.17a170.667 170.667 0 0 0 224.284-155.649l0.114-6.4h-768z m597.334 113.778c-23.211 0-44.8-6.94-62.777-18.887l0.71-0.91c7.453-9.728 13.796-19.94 18.888-30.578l2.958-6.542 138.752 0.028-0.284 0.54a113.75 113.75 0 0 1-92.559 56.207l-5.688 0.142z m-312.89 28.445c-93.41 0-170.751-36.068-206.392-83.77l-1.166-1.564h415.09l-1.138 1.565c-34.589 46.307-108.46 81.635-198.201 83.683l-8.192 0.086z m82.973 436.366l-5.888-4.153c10.98-30.805 19.314-61.127 24.946-90.88h40.192a28.444 28.444 0 0 0 3.328-56.69l-3.328-0.199h-32.654c1.422-19.228 1.706-38.2 0.768-56.889h60.33a28.444 28.444 0 0 0 3.328-56.69l-3.328-0.199h-66.901a430.45 430.45 0 0 0-40.59-118.727l-1.337 0.228c45.795-7.111 87.438-21.931 122.027-42.44l7.68-4.721c52.167 104.96 44.8 228.437-25.487 373.19l-83.086 58.17z m15.19 89.884l-6.002-2.19-10.127-3.982-10.211 3.754c-47.076 17.408-109.17 7.31-149.305-26.14-44.43-36.267-66.02-82.773-65.593-141.938l0.2-8.135 225.848 158.18L735.63 447.118l0.342 8.42c1.507 63.772-19.74 109.482-64.143 140.458-47.9 33.48-104.192 43.862-147.029 29.782zM311.323 723.94l-7.168-2.22-6.684-2.303c-53.988-19.684-94.52-58.88-108.231-101.66-1.764-5.576-2.73-13.654-2.617-24.065l0.17-5.404 112.698 41.045a272.924 272.924 0 0 0 13.51 11.805c40.562 33.82 95.887 50.204 148.48 47.19l7.425 2.673-3.783 4.267c-31.773 33.479-91.848 46.563-153.8 28.643z m253.298-28.73l-3.783-4.266 6.002-2.162c46.08-0.426 94.89-16.298 137.614-46.194a235.079 235.079 0 0 0 10.297-7.623l127.943-46.62c0.54 14.165-0.626 24.889-3.043 31.858-14.507 41.898-54.5 79.929-107.378 99.157l-6.713 2.304c-64.455 21.134-127.943 8.306-160.939-26.453z"  horiz-adv-x="1024" />

    
    <glyph glyph-name="gouwuche" unicode="&#58884;" d="M924.79599966 133.48466699999994H274.04399966c-19.285333 0-37.376 7.509333-50.858666 21.16266601-13.482667 13.653333-20.992 31.573333-20.82133399 50.858667l2.38933399 479.232c0 19.114667-6.656 31.914667-39.76533399 37.205333h-0.170666l-95.573334 16.38399999c-9.216 1.536-15.530667 10.410667-13.994666 19.626667 1.536 9.216 10.410667 15.530667 19.62666599 13.994667l95.40266701-16.384c45.397333-7.168 68.437333-31.061333 68.437333-70.99733399L236.32666666 205.16466701000002c0-10.069333 3.754667-19.456 10.922667-26.45333401 7.168-7.168 16.554667-11.093333 26.624-11.093333h650.752c9.386667 0 17.066667-7.68 17.066666-17.06666699s-7.509333-17.066667-16.896-17.06666601zM876.15599966 231.44733299999996l-602.624 1.87733401c-18.944 0.170667-36.693333 7.509333-50.005333 20.99199999-13.312 13.482667-20.48 31.232-20.47999999 50.176l1.87733299 353.962666L886.73733366 607.596667c30.890667-1.194667 55.125333-26.282667 55.125333-57.173334V296.98333301c0-36.181333-29.525333-65.536-65.706667-65.53600001zM273.87333366 267.45799999999997l602.453333-1.87733299c17.408 0 31.573333 14.165333 31.57333301 31.402666V550.423333c0 12.458667-9.898667 22.698667-22.35733301 23.04000001h-0.68266699l-645.632 48.12799999-1.53600001-317.44c0-9.728 3.754667-18.944 10.58133401-25.941333 6.485333-6.826667 15.701333-10.752 25.59999999-10.752zM340.26266667 77.16466701000002m-63.658667 0a63.658667 63.658667 0 1 1 127.31733399 0 63.658667 63.658667 0 1 1-127.31733399 0ZM340.26266667-3.5606669999999667c-44.544 0-80.725333 36.181333-80.72533301 80.72533401s36.181333 80.725333 80.72533301 80.72533299c44.544 0 80.725333-36.181333 80.72533299-80.72533299s-36.181333-80.725333-80.72533299-80.72533401z m0 127.317334c-25.770667 0-46.592-20.821333-46.59200001-46.59199999s20.821333-46.592 46.59200001-46.592 46.592 20.821333 46.592 46.592-20.821333 46.592-46.592 46.59199999zM828.88133367 77.16466701000002m-63.658667 0a63.658667 63.658667 0 1 1 127.317333 0 63.658667 63.658667 0 1 1-127.317333 0ZM828.88133367-3.5606669999999667c-44.544 0-80.725333 36.181333-80.72533401 80.72533401s36.181333 80.725333 80.72533401 80.72533299 80.725333-36.181333 80.72533299-80.72533299-36.181333-80.725333-80.72533299-80.72533401z m0 127.317334c-25.770667 0-46.592-20.821333-46.592-46.59199999s20.821333-46.592 46.592-46.592 46.592 20.821333 46.592 46.592-20.821333 46.592-46.592 46.59199999zM726.48133366 459.28733301H378.66266666c-9.386667 0-17.066667 7.68-17.066667 17.06666699s7.68 17.066667 17.066667 17.066667h347.818667c9.386667 0 17.066667-7.68 17.066666-17.066667s-7.68-17.066667-17.066666-17.06666699zM726.48133366 361.154H378.66266666c-9.386667 0-17.066667 7.68-17.066667 17.066667s7.68 17.066667 17.066667 17.066666h347.818667c9.386667 0 17.066667-7.68 17.066666-17.066666s-7.68-17.066667-17.066666-17.066667z"  horiz-adv-x="1024" />

    
    <glyph glyph-name="01" unicode="&#58881;" d="M994.689707 99.9168h-30.737067v47.56992a6.519467 6.519467 0 0 1-6.516053 6.519467h-36.66944v47.573333a6.519467 6.519467 0 0 1-6.519467 6.516053H864v121.15968h47.2064a6.516053 6.516053 0 0 1 6.21056 4.553387 6.509227 6.509227 0 0 1-2.46272 7.296c-0.49664 0.35328-49.657173 35.346773-50.793813 68.396373a6.280533 6.280533 0 0 1-0.160427 1.206614v83.995306h111.2064a6.51776 6.51776 0 0 1 1.2032 12.926294c-2.37056 0.44544-236.730027 45.965653-236.730027 171.50464V728.700587a6.519467 6.519467 0 0 1-13.03552 0v-43.045547H297.357653V728.700587a6.51776 6.51776 0 1 1-13.03552 0v-49.565014c0-125.53728-234.359467-171.057493-236.730026-171.50464a6.519467 6.519467 0 0 1 1.201493-12.926293h111.209813v-84.000427c-0.08704-0.392533-0.146773-0.78848-0.162133-1.206613-1.138347-33.0496-50.295467-68.043093-50.793813-68.396373a6.51776 6.51776 0 1 1 3.74784-11.849387h47.208106v-121.15968H109.754027a6.519467 6.519467 0 0 1-6.51776-6.519467v-47.573333H66.566827a6.516053 6.516053 0 0 1-6.51776-6.516053v-47.56992H29.313707a6.52288 6.52288 0 0 1-6.51776-6.519467v-54.0928a6.519467 6.519467 0 0 1 6.51776-6.519467h965.374293a6.519467 6.519467 0 0 1 6.519467 6.519467v54.0928a6.52288 6.52288 0 0 1-6.51776 6.52288zM100.988587 507.736747c20.908373 6.30784 46.14144 15.110827 71.558826 26.840746 78.52032 36.224 121.442987 83.838293 124.622507 138.031787H726.83008c3.182933-54.193493 46.107307-101.807787 124.622507-138.031787 25.417387-11.726507 50.650453-20.529493 71.55712-26.840746H100.988587z m574.588586-29.073067c-15.873707 0-28.782933-12.914347-28.782933-28.798293v-34.06848h-23.847253v34.06848c0 15.883947-12.916053 28.798293-28.796587 28.798293-15.883947 0-28.8-12.914347-28.8-28.798293v-34.06848h-23.830187v34.06848c0 15.883947-12.916053 28.798293-28.801706 28.798293-0.242347 0-0.479573-0.03072-0.72192-0.03584-0.24064 0.003413-0.477867 0.03584-0.72192 0.03584-15.88224 0-28.796587-12.914347-28.796587-28.798293v-34.06848h-23.8336v34.06848c0 15.883947-12.916053 28.798293-28.798293 28.798293-15.880533 0-28.798293-12.914347-28.798294-28.798293v-34.06848h-23.84896v34.06848c0 15.883947-12.909227 28.798293-28.781226 28.798293-15.870293 0-28.781227-12.914347-28.781227-28.798293v-34.06848h-146.60608v78.90432h677.935787v-78.90432h-146.60608v34.06848c0 15.88224-12.91264 28.798293-28.782934 28.798293z m15.744-28.798293v-34.06848h-31.486293v34.06848c0 8.692053 7.06048 15.761067 15.744 15.761066s15.742293-7.069013 15.742293-15.761066z m-81.408 0v-34.06848H578.389333v34.06848c0 8.692053 7.07072 15.761067 15.75936 15.761066 8.695467 0.001707 15.76448-7.069013 15.76448-15.761066z m-81.430186 0v-34.06848h-32.965974v34.06848c0 8.692053 7.07072 15.761067 15.761067 15.761066 0.242347 0 0.479573-0.0256 0.72192-0.037546 0.24064 0.011947 0.477867 0.037547 0.718507 0.037546 8.692053 0.001707 15.76448-7.069013 15.76448-15.761066z m-82.868907 0v-34.06848h-31.52384v34.06848c0 8.692053 7.07072 15.761067 15.761067 15.761066 8.692053 0.001707 15.762773-7.069013 15.762773-15.761066z m-81.44384 0v-34.06848H332.680533v34.06848c0 8.692053 7.062187 15.761067 15.745707 15.761066 8.681813 0.001707 15.744-7.069013 15.744-15.761066zM131.33824 342.295893c15.100587 13.282987 36.831573 36.140373 40.890027 60.463787h679.54688c4.06016-24.323413 25.78944-47.1808 40.890026-60.463787H131.33824z m621.35296-41.572693c-21.686613 0-39.33696-17.650347-39.33696-39.33696v-53.28384h-41.309867v53.28384c0 21.686613-17.646933 39.33696-39.33696 39.33696-21.686613 0-39.333547-17.650347-39.333546-39.33696v-53.28384h-41.309867v53.28384c0 21.686613-17.646933 39.33696-39.333547 39.33696-0.247467 0-0.484693-0.034133-0.725333-0.03584-0.244053 0.003413-0.48128 0.03584-0.728747 0.03584-21.68832 0-39.335253-17.650347-39.335253-39.33696v-53.28384h-41.306453v53.28384c0 21.686613-17.645227 39.33696-39.333547 39.33696-21.690027 0-39.33696-17.650347-39.33696-39.33696v-53.28384h-41.309867v53.28384c0 21.686613-17.64864 39.33696-39.338666 39.33696-21.686613 0-39.335253-17.650347-39.335254-39.33696v-53.28384h-58.948266l0.01024 121.15968h677.92384l0.013653-121.15968H792.029867v53.28384c-0.003413 21.686613-17.64864 39.33696-39.338667 39.33696z m26.28608-39.33696v-53.287253h-52.599467v53.287253c0 14.49984 11.799893 26.299733 26.299734 26.299733 14.503253 0 26.299733-11.799893 26.299733-26.299733z m-119.97696 0v-53.287253h-52.596053v53.287253c0 14.49984 11.793067 26.299733 26.29632 26.299733s26.299733-11.799893 26.299733-26.299733z m-119.980373 0v-53.287253h-54.0416v53.287253c0 14.503253 11.799893 26.299733 26.30144 26.299733 0.242347 0 0.479573-0.03072 0.72192-0.03584 0.24064 0.006827 0.477867 0.03584 0.718506 0.03584 14.503253 0 26.299733-11.799893 26.299734-26.299733z m-121.419094 0v-53.287253H365.003093v53.287253c0 14.503253 11.798187 26.299733 26.30144 26.299733 14.49984 0 26.29632-11.803307 26.29632-26.299733z m-119.97696 0v-53.287253h-52.599466v53.287253c0 14.503253 11.79648 26.299733 26.298026 26.299733 14.50496 0 26.30144-11.803307 26.30144-26.299733z m-181.3504-66.322773h791.45472v-41.05728H116.273493v41.05728z m-43.188906-54.089387h877.830826v-41.053867H73.084587v41.053867z m915.085653-95.143253H35.831467V86.8864H66.542933l0.0256-0.003413H957.436587l0.023893 0.003413h30.70976v-41.055573z"  horiz-adv-x="1024" />

    
    <glyph glyph-name="qizhi" unicode="&#58920;" d="M32 896a32 32 0 0 1-32-32v-960a32 32 0 1 1 64 0V864a32 32 0 0 1-32 32z m704.448-64c-127.296 0-189.984-96-321.44-96C242.848 736 128 832 128 832v-544s127.296-96 287.552-96c129.952 0 209.504 96 321.984 96C897.312 288 1024 192 1024 192V736s-127.744 96-287.552 96z m1.12-480c-112.512 0-192.064-96-321.984-96-90.624 0-170.72 30.688-223.232 57.376 0 88.32-0.384 280.736-0.384 414.08 50.432-26.208 128-55.456 223.04-55.456 131.456 0 194.144 96 321.44 96 90.048 0 169.952-30.496 222.496-57.088 0-207.872 1.76-301.312 1.76-416.672C908.448 320.992 828.352 352 737.568 352z"  horiz-adv-x="1024" />

    
    <glyph glyph-name="huoche" unicode="&#58946;" d="M752 816H272C184 816 112 744 112 656v-416c0-78.4 57.6-144 132.8-156.8L144 24c-16-9.6-20.8-28.8-11.2-43.2 9.6-16 28.8-20.8 43.2-11.2L368 80h288l193.6-112c16-9.6 35.2-3.2 43.2 11.2 9.6 16 3.2 35.2-11.2 43.2l-100.8 59.2c73.6 14.4 131.2 80 131.2 158.4V656c0 88-72 160-160 160zM272 752h480c52.8 0 96-43.2 96-96v-224H176V656c0 52.8 43.2 96 96 96z m480-608H272c-52.8 0-96 43.2-96 96v112h672v-112c0-52.8-43.2-96-96-96zM336 256m-48 0a48 48 0 1 1 96 0 48 48 0 1 1-96 0ZM688 256m-48 0a48 48 0 1 1 96 0 48 48 0 1 1-96 0Z"  horiz-adv-x="1024" />

    
    <glyph glyph-name="more01-company" unicode="&#58882;" d="M896 0h42.6667v-42.6667H85.3333v42.6667h42.6667V725.269A42.6667 42.6667 0 0 0 170.603 768h469.461C663.595 768 682.667 748.7570000000001 682.667 725.269V0h170.667V469.333h-128v42.6667h149.333a21.3333 21.3333 0 0 0 21.3333-21.3333v-490.667Zm-256 0V725.269L170.603 725.333 170.667 0h469.333ZM277.333 597.3330000000001h256v-42.6667H277.333v42.6667Zm0-256h256v-42.6667H277.333v42.6667Zm0 128h256v-42.6667H277.333v42.6667Zm0-256h256v-42.6667H277.333v42.6667Z"  horiz-adv-x="1024" />

    
    <glyph glyph-name="dui" unicode="&#58947;" d="M512 832c60.5 0 119.2-11.8 174.4-35.2 53.3-22.6 101.3-54.9 142.4-96 41.2-41.2 73.5-89.1 96-142.4C948.2 503.2 960 444.5 960 384s-11.8-119.2-35.2-174.4c-22.6-53.3-54.9-101.3-96-142.4-41.2-41.2-89.1-73.5-142.4-96C631.2-52.2 572.5-64 512-64s-119.2 11.8-174.4 35.2c-53.3 22.6-101.3 54.9-142.4 96-41.2 41.2-73.5 89.1-96 142.4C75.8 264.8 64 323.5 64 384s11.8 119.2 35.2 174.4c22.6 53.3 54.9 101.3 96 142.4s89.1 73.5 142.4 96C392.8 820.2 451.5 832 512 832m0 64C229.2 896 0 666.8 0 384s229.2-512 512-512 512 229.2 512 512S794.8 896 512 896zM425.9 133.4L197.4 364.5c-7.7 7.8-7.7 20.4 0.1 28.2l17 17c7.8 7.8 20.6 7.8 28.4-0.1L426 223.9c7.8-7.9 20.5-7.9 28.4-0.1l326 347c7.8 7.8 20.5 7.8 28.3 0l17-17c7.8-7.8 7.8-20.5 0-28.3L454.2 133.3c-7.8-7.9-20.5-7.8-28.3 0.1z"  horiz-adv-x="1024" />

    
    <glyph glyph-name="tupian" unicode="&#59199;" d="M700.903727 303.231577l-118.951092-117.664035c-0.09032-0.09032-0.270959-0.180639-0.383859-0.338699-9.325513-9.325513-9.325513-24.476648 0-33.937641 9.325513-9.325513 24.521808-9.325513 33.960221 0 0.632238 0.609658 0.835458 1.445116 1.422536 2.077354l71.69129 71.66871 33.847321 34.00538c0 0 23.302492-21.857376 23.82183-21.563837 8.919074-4.245028 19.780022-2.867652 27.095921 4.493407 9.325513 9.370673 9.325513 24.521808 0 33.9828l-16.98011 16.93495c0 0-3.138611 3.54505-4.877266 5.328864C737.618699 312.060331 716.393561 313.686086 700.903727 303.231577zM796.484587 185.161103l10.860948-10.951268c9.325513-9.348093 24.521808-9.348093 33.937641 0 9.325513 9.325513 9.325513 24.499228 0 33.937641l-10.951268 10.996428-0.09032-0.13548c-0.1129 0.13548-0.203219 0.338699-0.293539 0.429019-9.370673 9.325513-24.566968 9.325513-34.00538 0-9.325513-9.325513-9.325513-24.521808 0-33.937641C796.213627 185.386902 796.303947 185.228842 796.484587 185.161103zM327.318721 707.999471c-53.017685 0-96.009879-42.992194-96.009879-96.009879 0-53.062845 42.992194-96.009879 96.009879-96.009879s96.009879 42.947034 96.009879 96.009879C423.3286 665.007277 380.336406 707.999471 327.318721 707.999471zM327.318721 579.971246c-17.657508 0-32.018346 14.338258-32.018346 32.018346 0 17.634928 14.360838 31.973186 32.018346 31.973186s31.995766-14.338258 31.995766-31.973186C359.314487 594.309504 344.976229 579.971246 327.318721 579.971246zM871.359647 868.000882 167.29473 868.000882c-70.765513 0-128.005645-57.240132-128.005645-128.028225l0-704.042337c0-70.697773 57.330452-128.028225 128.005645-128.028225L871.359647-92.097905c70.697773 0 128.028225 57.330452 128.028225 128.028225L999.387872 739.972657C999.387872 810.76075 942.05742 868.000882 871.359647 868.000882zM935.35118 35.93032c0-35.382756-28.608776-64.036692-63.991533-64.036692L167.29473-28.106373c-35.382756 0-64.014112 28.653936-64.014112 64.036692l0 75.891158 170.297861 163.004542c5.735303 4.786946 9.415832 5.125645 15.173716 0.09032l130.782977-106.961147c11.267387-7.948137 23.573451-17.770408 33.237663-17.770408 9.641632 0 21.134818 3.29667 33.531202 15.693054l237.653804 237.676384c1.264476-0.13548 2.483793-0.429019 3.793429-0.429019 0.383859 0 0.835458 0.09032 1.219316 0.09032l206.380595-221.554311L935.35118 35.93032zM935.35118 275.616318l-170.862359 183.394223c-6.141742 14.157619-20.231621 24.137949-36.714972 24.137949-14.767277 0-27.479779-8.015877-34.344079-19.915502L459.546814 229.372613c-6.77398-4.832106-6.77398-4.832106-14.157619 0l-132.747431 108.677222c-7.293319 9.709372-18.854245 16.076913-31.905447 16.076913-6.66108 0-12.915722-1.828975-18.470386-4.741786l-6.254642-3.974068c-2.032194-1.558015-3.793429-3.36441-5.532084-5.261125l-147.198589-140.989107L103.280617 739.972657c0 35.382756 28.631356 64.036692 64.014112 64.036692L871.359647 804.00935c35.382756 0 63.991533-28.653936 63.991533-64.036692L935.35118 275.616318z"  horiz-adv-x="1024" />

    
    <glyph glyph-name="gengduo" unicode="&#58942;" d="M204.8 486.4 204.8 486.4c56.553833 0 102.4-45.846167 102.4-102.4 0-56.553833-45.846167-102.4-102.4-102.4l0 0c-56.553833 0-102.4 45.846167-102.4 102.4C102.4 440.553833 148.246167 486.4 204.8 486.4zM512 486.4c56.553833 0 102.4-45.846167 102.4-102.4 0-56.553833-45.846167-102.4-102.4-102.4s-102.4 45.846167-102.4 102.4C409.6 440.553833 455.446167 486.4 512 486.4zM819.2 486.4 819.2 486.4c56.553833 0 102.4-45.846167 102.4-102.4 0-56.553833-45.846167-102.4-102.4-102.4l0 0c-56.553833 0-102.4 45.846167-102.4 102.4C716.8 440.553833 762.646167 486.4 819.2 486.4z"  horiz-adv-x="1024" />

    
    <glyph glyph-name="xinaixin-fuben" unicode="&#58917;" d="M1045.333 778.667C919.467 902.4 716.8 906.667 584.533 789.333 452.267 906.667 249.6 902.4 123.733 778.667c-128-128-130.133-337.067-2.133-467.2l4.267-4.267 384-384c40.533-40.533 106.666-42.667 149.333-2.133l2.133 2.133 384 384c128 128 130.134 337.067 4.267 465.067-2.133 4.266-2.133 4.266-4.267 6.4z"  horiz-adv-x="1169" />

    
    <glyph glyph-name="next" unicode="&#58908;" d="M769.792 419.968L416.48 770.08c-18.848 18.656-49.216 18.528-67.872-0.32-18.656-18.81599999-18.528-49.216 0.32-67.872l319.456-316.576-318.176-321.056c-18.656-18.81599999-18.528-49.216 0.32-67.872 9.344-9.28 21.568-13.92 33.792-13.92 12.352 0 24.704 4.736 34.08 14.208l350.112 353.31200001c0.512 0.512 0.672 1.248 1.184 1.79199999 0.128 0.128 0.288 0.16 0.416 0.288C788.736 370.91200000000003 788.64 401.312 769.792 419.968z"  horiz-adv-x="1024" />

    
    <glyph glyph-name="qianbao" unicode="&#58927;" d="M809.1648-121.6512l-596.992 0C96.9728-121.6512 3.1744-27.7504 3.1744 87.4496l0 596.992C3.1744 799.6416 96.9728 893.44 212.1728 893.44l596.992 0c115.2 0 208.7936-93.7984 208.7936-208.9984 0-25.8048-20.992-46.7968-46.7968-46.7968s-46.7968 20.992-46.7968 46.7968c0 63.5904-51.8144 115.4048-115.4048 115.4048L212.1728 799.8464c-63.5904 0-115.4048-51.8144-115.4048-115.4048l0-596.992c0-63.5904 51.8144-115.4048 115.4048-115.4048l596.992 0c63.5904 0 115.4048 51.8144 115.4048 115.4048L924.5696 533.1968c0 25.8048 20.992 46.7968 46.7968 46.7968 25.8048 0 46.7968-20.992 46.7968-46.7968l0-445.8496C1017.9584-27.7504 924.3648-121.6512 809.1648-121.6512zM971.3664 486.6048 297.7792 486.6048c-69.632 0-126.1568 56.6272-126.1568 126.1568s56.6272 126.1568 126.1568 126.1568l514.3552 0c25.8048 0 46.7968-20.992 46.7968-46.7968l0-112.2304 112.2304 0c25.8048 0 46.7968-20.992 46.7968-46.7968S997.1712 486.6048 971.3664 486.6048zM297.7792 645.632c-17.8176 0-32.768-14.9504-32.768-32.768 0-17.8176 14.9504-32.768 32.768-32.768l467.5584 0 0 65.4336L297.7792 645.5296 297.7792 645.632z"  horiz-adv-x="1024" />

    
    <glyph glyph-name="message" unicode="&#59085;" d="M64 816.1v-720h159.9l74.2-144.2 184.2 144.2H960v720H64z m846-670H465.1l-13.6-10.6-136.6-107-46.5 90.5-14 27.1H114v620h796v-620zM321.7 414h-50V514h50v-100z m210.3 0h-50V514h50v-100z m220.3 0h-50V514h50v-100z"  horiz-adv-x="1024" />

    
    <glyph glyph-name="fapiao" unicode="&#59656;" d="M128 42.666667c0-0.064 768.064 0 768.064 0L896 725.333333H127.936L128 42.666667zM127.936 768h768.128C919.594667 768 938.666667 749.013333 938.666667 725.333333v-682.666666c0-23.573333-19.029333-42.666667-42.602667-42.666667H127.936A42.56 42.56 0 0 0 85.333333 42.666667V725.333333c0 23.573333 19.029333 42.666667 42.602667 42.666667zM362.666667 597.333333v-42.666666h298.666666v42.666666H362.666667z m448-149.333333H213.333333v-42.666667h597.333334v42.666667z m-341.333334-128H213.333333v-42.666667h256v42.666667z m0-128H213.333333v-42.666667h256v42.666667z"  horiz-adv-x="1024" />

    
    <glyph glyph-name="zhuyi" unicode="&#58952;" d="M512-128C229.717333-128 0 101.649067 0 384 0 666.282667 229.717333 896 512 896c282.350933 0 512-229.649067 512-512s-229.649067-512-512-512z m0 950.545067C270.165333 822.545067 73.454933 625.834667 73.454933 384c0-241.7664 196.7104-438.545067 438.545067-438.545067 241.800533 0 438.545067 196.7104 438.545067 438.545067 0 241.834667-196.744533 438.545067-438.545067 438.545067z m-55.0912-199.7824c0 14.4384 5.9392 28.7744 16.110933 38.980266A55.773867 55.773867 0 0 0 512 677.888c14.4384 0 28.740267-5.9392 38.946133-16.145067 10.205867-10.205867 16.145067-24.541867 16.145067-38.980266 0-14.404267-5.9392-28.740267-16.145067-38.946134A55.637333 55.637333 0 0 0 512 567.671467c-14.4384 0-28.7744 5.9392-38.980267 16.145066a55.876267 55.876267 0 0 0-16.110933 38.946134zM512 90.112a36.7616 36.7616 0 0 0-36.727467 36.7616v330.581333a36.7616 36.7616 0 1 0 73.454934 0v-330.581333c0-20.309333-16.452267-36.7616-36.727467-36.7616z"  horiz-adv-x="1024" />

    
    <glyph glyph-name="tuikuan" unicode="&#58904;" d="M985.985 305.992c-10.321 14.277-30.275 17.545-44.724 7.224l-56.936-40.94c9.804 35.952 14.965 73.107 14.965 110.778 0 229.983-187.152 416.962-416.962 416.962-229.983 0-416.963-186.98-416.963-416.962s187.152-416.962 416.963-416.962c72.762 0 143.975 19.093 206.76 55.044 3.44 0.688 6.71 1.72 9.805 3.613 17.89 10.664 35.091 22.705 51.089 35.95 13.589 11.181 15.653 31.307 4.3 45.068-11.181 13.59-31.307 15.653-45.068 4.3-12.557-10.32-26.146-19.61-40.08-28.21-2.063-0.688-4.3-1.032-6.364-2.236-54.356-32.51-116.797-49.54-180.614-49.54-194.72 0-352.973 158.425-352.973 352.973s158.425 352.973 353.145 352.973S835.3 577.774 835.3 383.054c0-44.208-8.257-87.555-24.082-128.15l-45.24 108.712c-6.88 16.342-25.63 23.91-41.8 17.202-16.34-6.709-24.082-25.458-17.201-41.8l72.074-172.874c0.688-1.892 1.892-3.268 2.924-4.988 0.344-0.516 0.344-1.032 0.688-1.376 0.172-0.172 0.344-0.172 0.344-0.344 2.752-3.613 6.193-6.537 10.15-8.773l2.063-1.032c3.269-1.548 6.88-2.752 10.665-3.096 0.688 0 1.204 0.172 1.892 0 0.344 0 0.516-0.172 0.86-0.172 0.688 0 1.376 0.172 2.065 0.344 2.408 0.172 4.816 0.516 7.052 1.032 0.516 0.172 1.032 0.344 1.376 0.516a28.415 28.415 0 0 1 7.225 3.612l1.032 0.516L978.76 261.268c14.277 10.493 17.546 30.446 7.225 44.724zM606.694 521.525c12.729 12.213 13.073 32.51 0.688 45.24-12.213 12.729-32.51 13.073-45.24 0.688l-79.814-77.062-79.643 77.062c-12.729 12.213-33.027 12.041-45.24-0.688-12.213-12.73-12.04-33.027 0.688-45.24l89.792-86.695v-18.75h-63.99c-17.717 0-31.994-14.277-31.994-31.994s14.277-31.995 31.994-31.995h63.99v-31.994h-63.99c-17.717 0-31.994-14.277-31.994-31.995s14.277-31.994 31.994-31.994h63.99v-67.258c0-17.717 14.277-31.995 31.994-31.995s31.995 14.278 31.995 31.995v67.258h63.99c17.717 0 31.994 14.277 31.994 31.994s-14.277 31.995-31.995 31.995h-63.989V352.09h63.99c17.717 0 31.994 14.278 31.994 31.995s-14.277 31.995-31.995 31.995h-63.989v13.76l94.78 91.684z"  horiz-adv-x="1024" />

    
    <glyph glyph-name="bijiben" unicode="&#58895;" d="M818.4 832.92H306.25c-57.38 0-104.1-46.42-104.62-103.68-19.61-3.08-37.84-9.05-53.06-17.57-28.98-16.2-45.61-40.93-45.61-67.85s16.62-51.64 45.61-67.85c15.22-8.51 33.44-14.48 53.05-17.56v-47.26c-19.61-3.09-37.83-9.05-53.05-17.56-28.98-16.2-45.61-40.93-45.61-67.85s16.62-51.64 45.61-67.85c15.22-8.51 33.44-14.48 53.05-17.56v-47.82c-18.29-3.22-35.26-8.99-49.59-17-28.98-16.2-45.61-40.93-45.61-67.85 0-26.91 16.62-51.64 45.61-67.85 14.33-8.01 31.3-13.78 49.59-17v-82.69c0-57.69 46.94-104.63 104.63-104.63H818.4c57.69 0 104.63 46.94 104.63 104.63V728.28c0.01 57.7-46.93 104.64-104.63 104.64z m-631.09-199c-8.62 3.88-12.9 7.81-14.54 9.91 1.64 2.1 5.92 6.02 14.54 9.91 4.36 1.96 9.17 3.61 14.31 4.93V629c-5.13 1.31-9.95 2.96-14.31 4.92z m0-218.08c-8.62 3.88-12.9 7.81-14.54 9.91 1.64 2.1 5.92 6.02 14.54 9.91 4.36 1.96 9.17 3.61 14.31 4.93v-29.67c-5.13 1.31-9.95 2.95-14.31 4.92z m3.47-218.09c-8.62 3.88-12.9 7.81-14.54 9.91 1.64 2.1 5.92 6.02 14.54 9.91 3.36 1.51 7 2.84 10.84 3.98v-27.76c-3.84 1.12-7.48 2.45-10.84 3.96zM853.8 40.12c0-19.52-15.88-35.4-35.4-35.4H306.25c-19.52 0-35.4 15.88-35.4 35.4V221.54c3.84-1.14 7.48-2.46 10.84-3.98 9.98-4.5 14.14-9.06 15.13-10.76 0.45-18.72 15.77-33.77 34.61-33.77 19.12 0 34.62 15.5 34.62 34.62 0 26.91-16.62 51.64-45.61 67.85-14.33 8.01-31.3 13.78-49.59 17V438.54c2.58-0.87 5.05-1.84 7.38-2.89 9.98-4.5 14.14-9.06 15.13-10.76 0.45-18.72 15.77-33.77 34.61-33.77 19.12 0 34.62 15.5 34.62 34.62 0 26.91-16.62 51.64-45.61 67.85-13.42 7.5-29.16 13.02-46.13 16.35V656.62c2.58-0.87 5.05-1.84 7.38-2.89 9.98-4.5 14.14-9.06 15.13-10.76 0.45-18.72 15.77-33.77 34.61-33.77 19.12 0 34.62 15.5 34.62 34.62 0 26.91-16.62 51.64-45.61 67.85-13.42 7.5-29.16 13.02-46.13 16.35v0.26c0 19.52 15.88 35.4 35.4 35.4H818.4c19.52 0 35.4-15.88 35.4-35.4v-688.16zM755.48 612.26h-317.6c-19.12 0-34.62 15.5-34.62 34.62s15.5 34.62 34.62 34.62h317.6c19.12 0 34.62-15.5 34.62-34.62s-15.5-34.62-34.62-34.62zM755.48 436.87h-317.6c-19.12 0-34.62 15.5-34.62 34.62s15.5 34.62 34.62 34.62h317.6c19.12 0 34.62-15.5 34.62-34.62s-15.5-34.62-34.62-34.62zM755.48 261.48h-317.6c-19.12 0-34.62 15.5-34.62 34.62 0 19.12 15.5 34.62 34.62 34.62h317.6c19.12 0 34.62-15.5 34.62-34.62 0-19.12-15.5-34.62-34.62-34.62zM755.48 86.09h-317.6c-19.12 0-34.62 15.5-34.62 34.62s15.5 34.62 34.62 34.62h317.6c19.12 0 34.62-15.5 34.62-34.62s-15.5-34.62-34.62-34.62z"  horiz-adv-x="1024" />

    
    <glyph glyph-name="shuben" unicode="&#59243;" d="M505.344 32.768c-13.824 6.144-27.136 12.288-40.96 17.92-3.584 1.536-8.192 1.536-12.288 1.536H78.848V561.152c0 23.04 5.632 31.232 28.16 35.84 11.264 2.56 15.872 6.656 14.336 18.432-1.024 8.704 0 17.92-0.512 27.136-0.512 7.168 2.048 10.24 8.704 12.288 37.888 13.312 76.8 20.992 116.736 24.064 64 4.608 126.464-1.536 185.344-29.184 29.696-13.824 57.344-32.256 86.016-49.152 18.944 12.288 39.936 27.136 61.952 38.912 54.272 29.696 113.152 40.448 174.08 40.448 50.176 0 99.328-8.704 146.944-24.576 8.192-2.56 11.264-6.656 10.752-15.36-1.024-11.264 0-23.04-0.512-34.304-0.512-6.144 1.536-9.728 8.192-11.264 5.632-1.024 11.776-3.072 15.872-6.656 4.608-4.608 10.24-11.264 10.24-17.408 0.512-171.008 0.512-342.016 0.512-513.024 0-1.536-0.512-2.56-0.512-5.632h-363.008c-6.144 0-11.776-3.072-17.92-5.12-11.776-4.608-23.04-9.216-34.816-13.824h-24.064z m380.416 96.256c0.512 3.584 0.512 5.12 0.512 7.168V626.176c0 6.656-2.56 9.728-8.704 10.752-32.256 5.632-64 14.336-96.256 16.896-87.552 7.68-167.936-12.288-238.592-67.072-6.144-4.608-8.192-9.216-8.192-16.896 0.512-92.672 0-185.344 0-278.016v-10.752c-1.024-0.512-2.048-1.024-3.584-1.536-3.072 4.096-6.656 8.192-10.752 12.8v-198.144c4.608 1.536 8.192 3.072 11.776 4.608 44.544 18.432 90.624 32.256 137.728 40.96 61.44 11.264 122.368 14.336 183.808-1.024 10.752-2.56 20.48-6.144 32.256-9.728z m-386.048 151.552c-1.024 0.512-1.536 1.024-2.56 1.536V570.88c0 4.608-1.536 10.24-4.608 12.8-29.696 24.576-62.976 43.008-99.328 54.784-78.848 25.088-157.696 21.504-236.544-1.024-7.68-2.048-10.752-5.12-10.752-13.824 0.512-161.28 0-322.56 0-483.84 0-3.584 0.512-6.656 0.512-10.752 3.584 1.024 6.144 1.536 8.192 2.56 50.176 17.408 101.888 19.456 154.112 13.824 66.048-6.656 130.048-23.552 191.488-47.616 3.584-1.536 7.168-2.048 10.752-3.584V291.84c-1.024 0.512-1.536 1.024-2.56 1.536-3.072-4.096-6.144-8.704-8.704-12.8z"  horiz-adv-x="1024" />

    
    <glyph glyph-name="icon" unicode="&#58922;" d="M720.073749-139.516252c0 0 9.458495 58.982871-48.868707 131.071466 56.747685 165.492462 64.629946 316.229628 64.629946 316.229628s116.650025-27.845695 116.650025-147.451157C852.486108-44.487989 720.073749-139.516252 720.073749-139.516252zM398.503536-67.613741c0 0-78.124255 260.607199-78.124255 368.744469 0 48.634461 5.260679 91.916297 13.465849 131.183116l355.970411 0c8.268657-39.297468 13.568742-82.611047 13.568742-131.220332 0-106.500834-77.892198-368.707253-77.892198-368.707253L398.503536-67.613741zM511.7362 372.742075c-40.046179 0-72.507829-33.740151-72.507829-75.36913 0-41.622412 32.46165-75.365847 72.507829-75.365847 40.049463 0 72.510018 33.74234 72.510018 75.365847C584.247313 339.00083 551.785662 372.742075 511.7362 372.742075zM496.124922 709.376262 496.124922 812l28.226618 0 0-100.020763c32.259148-24.415198 119.574814-102.034839 159.049608-251.611723l-343.202921 0C378.341979 605.795839 461.433558 682.59562 496.124922 709.376262zM303.926251-139.516252c0 0-132.412359 95.027168-132.412359 299.851031 0 119.605463 116.644552 147.451157 116.644552 147.451157s7.881167-150.737166 64.631041-316.229628C294.465567-80.533381 303.926251-139.516252 303.926251-139.516252zM559.737979-154.652471l-23.64569 24.571727-25.220828-81.919256-29.951718 81.919256-20.491034-42.597706-29.949528 77.009946 162.364076 0L559.737979-154.652471z"  horiz-adv-x="1024" />

    
    <glyph glyph-name="guanbi-" unicode="&#58916;" d="M29.696 384C29.696 650.752 245.76 866.816 512 866.816s482.304-216.064 482.304-482.304V384A481.792 481.792 0 0 0 512-98.304C245.248-98.304 29.696 117.76 29.696 384z m514.56 0l168.448 168.448a21.923 21.923 0 0 1 0 31.232l-1.024 1.024a21.923 21.923 0 0 1-31.232 0L512 415.744l-168.448 168.96a21.923 21.923 0 0 1-31.232 0l-1.024-1.024a21.923 21.923 0 0 1 0-31.232l168.448-168.96L311.296 215.04a21.923 21.923 0 0 1 0-31.232l1.024-1.024a21.923 21.923 0 0 1 31.232 0L512 351.232l168.448-168.448a21.923 21.923 0 0 1 31.232 0l1.024 1.024a21.923 21.923 0 0 1 0 31.232L544.256 384z"  horiz-adv-x="1024" />

    
    <glyph glyph-name="fanhui" unicode="&#58880;" d="M766.976-125.95000000000004c-10.24 0-20.48 3.584-28.672 10.752L228.352 357.376c-15.872 14.336-15.872 38.4 0 52.736L738.304 882.688c15.872 14.336 40.96 14.336 56.832 0s15.872-38.4 0-52.736L313.856 384l481.28-445.952c15.872-14.336 15.872-38.4 0-52.736-7.68-7.168-17.92-11.264-28.16-11.264Z"  horiz-adv-x="1024" />

    
    <glyph glyph-name="yuan1" unicode="&#58969;" d="M512.512 885.76c276.48 0 501.76-225.28 501.76-501.76s-225.28-501.76-501.76-501.76S10.752 107.52 10.752 384s225.28 501.76 501.76 501.76m0 10.24c-282.624 0-512-229.376-512-512s229.376-512 512-512 512 229.376 512 512-229.376 512-512 512z"  horiz-adv-x="1025" />

    
    <glyph glyph-name="shoutibao" unicode="&#59625;" d="M381.44813 607.432769h259.735579v-62.094221h-259.735579zM885.312846 607.432769h-101.19782v-62.094221h49.352011c31.683607 0 57.369615-24.258497 57.369616-54.183039v-433.46739c0-29.924543-25.687032-54.182017-57.369616-54.182016H189.164802c-31.68463 0-57.370639 24.257473-57.370638 54.182016V491.155509c0 29.925566 25.686009 54.18304 57.370638 54.183039h49.352012v62.094221h-101.19782c-36.782741 0-66.601884-29.819143-66.601884-66.601884v-532.819165c0-36.781718 29.819143-66.601884 66.601884-66.601884h747.994875c36.783765 0 66.602907 29.820166 66.602907 66.601884V540.830885c-0.001023 36.782741-29.819143 66.601884-66.60393 66.601884zM320.218604 340.176912c29.427216 0 53.281507 23.854291 53.281507 53.280484 0 19.788695-10.794857 37.043684-26.809599 46.232974V600.501916c0 93.623307 72.224951 169.520905 161.318082 169.520905h7.981789c89.094154 0 161.320129-75.897597 161.320128-169.520905v-160.043043c-16.767895-8.975419-28.177759-26.653033-28.177759-47.001477 0-29.427216 23.855314-53.280484 53.281507-53.280484 29.426193 0 53.281507 23.854291 53.281507 53.280484 0 17.21815-8.17417 32.518624-20.84577 42.259476V609.120201c0 120.106472-97.363492 217.470987-217.470987 217.470986h-10.759041c-120.106472 0-217.470987-97.364515-217.470987-217.470986v-172.390256c-13.447267-9.67229-22.211884-25.443485-22.211884-43.272549 0-29.427216 23.854291-53.280484 53.281507-53.280484z"  horiz-adv-x="1024" />

    
    <glyph glyph-name="yuan" unicode="&#58885;" d="M512 384m-396 0a396 396 0 1 1 792 0 396 396 0 1 1-792 0ZM512 762c51 0 100.5-10 147.1-29.7 45-19 85.4-46.3 120.2-81 34.7-34.7 62-75.1 81-120.2C880 484.5 890 435 890 384s-10-100.5-29.7-147.1c-19-45-46.3-85.4-81-120.2-34.7-34.7-75.1-62-120.2-81C612.5 16 563 6 512 6s-100.5 10-147.1 29.7c-45 19-85.4 46.3-120.2 81-34.7 34.7-62 75.1-81 120.2C144 283.5 134 333 134 384s10 100.5 29.7 147.1c19 45 46.3 85.4 81 120.2 34.7 34.7 75.1 62 120.2 81C411.5 752 461 762 512 762m0 18c-218.7 0-396-177.3-396-396s177.3-396 396-396 396 177.3 396 396-177.3 396-396 396z"  horiz-adv-x="1024" />

    
    <glyph glyph-name="erji" unicode="&#58915;" d="M102.692571 443.245714h-0.804571a25.746286 25.746286 0 0 0-24.795429 26.624C84.187429 708.827429 275.236571 896 512 896c236.763429 0 427.812571-187.172571 434.907429-426.130286a25.782857 25.782857 0 0 0-24.795429-26.660571 25.746286 25.746286 0 0 0-26.331429 25.088C889.417143 679.131429 720.822857 844.251429 512 844.251429c-208.859429 0-377.417143-165.12-383.744-375.954286a25.709714 25.709714 0 0 0-25.6-25.088zM102.4 184.466286c-56.466286 0-102.4 46.445714-102.4 103.497143v103.497142c0 57.051429 45.933714 103.497143 102.4 103.497143 56.466286 0 102.4-46.445714 102.4-103.497143v-103.497142c0-57.051429-45.933714-103.497143-102.4-103.497143z m0 258.706285c-28.233143 0-51.2-23.186286-51.2-51.748571v-103.497143a51.492571 51.492571 0 0 1 51.2-51.748571 51.492571 51.492571 0 0 1 51.2 51.748571v103.497143c0 28.562286-22.966857 51.748571-51.2 51.748571z m819.2-258.706285c-56.466286 0-102.4 46.445714-102.4 103.497143v103.497142c0 57.051429 45.933714 103.497143 102.4 103.497143 56.466286 0 102.4-46.445714 102.4-103.497143v-103.497142c0-57.051429-45.933714-103.497143-102.4-103.497143z m0 258.706285c-28.233143 0-51.2-23.186286-51.2-51.748571v-103.497143a51.492571 51.492571 0 0 1 51.2-51.748571 51.492571 51.492571 0 0 1 51.2 51.748571v103.497143c0 28.562286-22.966857 51.748571-51.2 51.748571z m-246.601143-521.216a25.014857 25.014857 0 0 0 0 49.993143 225.243429 225.243429 0 0 1 224.987429 225.024 25.014857 25.014857 0 0 0 50.029714 0c0-151.625143-123.355429-275.017143-275.017143-275.017143zM625.005714-128h-74.971428c-41.398857 0-75.044571 33.645714-75.044572 74.971429 0 41.398857 33.645714 75.044571 75.008 75.044571h74.971429c41.398857 0 75.044571-33.645714 75.044571-75.008 0-41.398857-33.645714-75.008-75.008-75.008z m-74.971428 99.986286a25.014857 25.014857 0 0 1 0-49.993143h74.971428a25.014857 25.014857 0 0 1 0 49.993143h-74.971428z"  horiz-adv-x="1024" />

    
    <glyph glyph-name="xiaoxiong" unicode="&#58902;" d="M845.79 178.7c-8.44 23.19-16.88 46.37-25.32 69.56-12.94 35.54-25.87 71.08-38.81 106.62-4.2 11.54-7.67 24.35-15.13 34.25v-5.05c36.76 66.74 46.4 146.49 26.09 220.01-5.58 20.21-13.44 39.75-23.15 58.32l-0.78-6.06c33.9 32.69 42.35 85.07 19.56 126.46-20.98 38.08-64.4 59.27-107.3 53-26.41-3.86-50.54-18.17-66.98-39.12l4.86 1.29c-68.6 27.29-146.37 27.55-215.15 0.71l4.86-1.29c-29.42 35.03-79.33 47.22-121.49 29.28-37.8-16.09-63.11-53.9-63.71-94.96-0.4-27.6 10.44-54.16 29.37-74.12l-0.78 6.06c-36.37-68.72-44.36-150.64-21.12-224.95 6.35-20.3 14.96-39.87 25.49-58.34v5.05c-7.41-11.98-11.21-27.05-15.98-40.18-8.8-24.17-17.59-48.33-26.39-72.5l-25.68-70.56c-5-13.75-11.76-28.15-12.96-42.87-1.69-20.63 7.12-41.79 22.86-55.2 7.11-6.06 15.11-10.07 23.83-13.24 9.69-3.53 18.98-6.48 29.49-6.01-1.61 2.11-3.21 4.22-4.82 6.33-0.04-0.12-0.07-0.24-0.11-0.36-0.92-3.13 1.62-6.33 4.82-6.33h17.81c-1.61 1.22-3.21 2.45-4.82 3.67 11.05-47.28 53.8-80.42 102.13-80.42l-5 5c0-13.36-1.15-27.29 3.32-40.11 6.59-18.91 22.17-33.83 41.48-39.31 7.4-2.1 14.88-2.32 22.5-2.32 7.05 0 14.14-0.29 21.13 0.77 19.74 3 37.41 16.11 45.96 34.18 7.07 14.95 6.07 30.74 6.07 46.8l-5-5h30.7l-5 5c0-13.36-1.15-27.29 3.32-40.11 6.59-18.91 22.17-33.83 41.48-39.31 7.4-2.1 14.88-2.32 22.5-2.32 7.05 0 14.14-0.29 21.13 0.77 19.74 3 37.41 16.11 45.96 34.18 7.07 14.95 6.07 30.74 6.07 46.8l-5-5c16.81 0 33.38-0.38 49.63 4.78 21.79 6.92 40.74 21.01 53.86 39.7 7.58 10.8 12.92 23.11 15.92 35.94-1.61-1.22-3.21-2.45-4.82-3.67h2.46c3.2 0 5.74 3.2 4.82 6.33l-0.18 0.63c-1.61-2.11-3.21-4.22-4.82-6.33 10.51-0.27 19.89 2.81 29.56 6.44 11.23 4.21 21.36 10.89 29.08 20.14 15.56 18.57 20.23 44.08 12.18 66.97-2.12 6.03-11.79 3.44-9.64-2.66 6.98-19.85 3.5-42.25-10.46-58.29-6.54-7.51-14.77-13.18-24.09-16.66-8.74-3.27-17.11-6.22-26.63-5.98-3.22 0.08-5.72-3.27-4.82-6.33l0.18-0.63c1.61 2.11 3.21 4.22 4.82 6.33h-2.46c-2.12 0-4.32-1.55-4.82-3.67-6.27-26.83-23.76-49.8-48.23-62.6-12.37-6.47-26.23-10.03-40.17-10.44-7.11-0.21-14.24-0.04-21.35-0.04-2.7 0-5-2.29-5-5 0-11.05 1.12-22.88-1.78-33.64-4.73-17.53-18.8-31.57-36.32-36.32-6.51-1.76-13.01-1.78-19.68-1.78-5.93 0-12.08-0.38-17.98 0.42-17.99 2.44-33.86 14.61-40.82 31.4-5.22 12.61-3.89 26.59-3.89 39.93 0 2.7-2.29 5-5 5h-30.7c-2.7 0-5-2.29-5-5 0-11.05 1.12-22.88-1.78-33.64-4.73-17.53-18.8-31.57-36.32-36.32-6.51-1.76-13.01-1.78-19.68-1.78-5.93 0-12.08-0.38-17.98 0.42-17.99 2.44-33.86 14.61-40.82 31.4-5.22 12.61-3.89 26.59-3.89 39.93 0 2.7-2.29 5-5 5-44.06 0-82.44 30.06-92.49 73.07-0.5 2.13-2.69 3.67-4.82 3.67h-17.81c1.61-2.11 3.21-4.22 4.82-6.33 0.04 0.12 0.07 0.24 0.11 0.36 0.89 3.02-1.59 6.47-4.82 6.33-9.16-0.41-17.14 2.12-25.56 5.19-7.03 2.56-13.77 5.53-19.66 10.28-13.86 11.19-21.77 28.51-21.12 46.3 0.51 13.99 7.44 28.27 12.18 41.28 16.82 46.2 33.63 92.41 50.45 138.61 3.22 8.84 6.43 17.67 9.65 26.51 2.19 6.01 4.14 11.85 7.53 17.35 0.94 1.52 0.87 3.52 0 5.05-37.13 65.1-47.15 143.56-27.21 215.87 5.49 19.91 13.18 39.08 22.84 57.33 1.07 2.02 0.8 4.39-0.78 6.06-29.03 30.62-34.81 77.65-13.17 114.04 19.37 32.57 57.41 50.86 94.97 45.45 23.55-3.39 44.65-15.68 59.89-33.83 1.03-1.23 3.35-1.87 4.86-1.29 67.36 26.28 142.65 26.01 209.84-0.71 1.46-0.58 3.89 0.04 4.86 1.29 26.49 33.77 72.83 46.89 112.67 29.83 35.14-15.05 58.12-50.68 57.53-88.86-0.4-25.49-11.34-49.53-29.62-67.16-1.65-1.59-1.8-4.11-0.78-6.06 34-65.01 41.53-142 20.56-212.34-5.8-19.45-13.72-38.13-23.51-55.9-0.79-1.44-1.06-3.64 0-5.05 6.39-8.48 9.3-18.62 12.89-28.47 5.53-15.19 11.05-30.37 16.58-45.56l39.57-108.72c3.07-8.43 6.14-16.86 9.21-25.3 2.19-5.99 11.86-3.4 9.65 2.66zM593.64 482.81c-0.1-11.86-2.61-24.42-14.72-29.33-11.84-4.8-26.13-3.42-38.57-2.94-16.83 0.65-33.52 0.91-50.35 0.23-13.38-0.54-27.91-2.11-40.98 1.61-11.75 3.34-16.88 12.72-17.83 24.46-1.35 16.76 2.85 33.79 11.55 48.15 17.61 29.04 52.65 44.47 85.97 37.52 37.59-7.85 64.63-41.44 64.93-79.7 0.05-6.43 10.05-6.45 10 0-0.3 38.16-24.23 72.59-60.09 85.83-35.86 13.25-77.88 1.69-101.92-28.01-11.78-14.55-18.92-32.2-20.39-50.88-1.16-14.67 0.62-31.97 13.34-41.42 11.15-8.29 26.65-8.32 39.93-8.09 18.55 0.33 36.97 1.42 55.53 0.71 16.62-0.63 35.6-3.18 51.55 2.88 16.71 6.36 21.93 22.27 22.06 38.97 0.04 6.45-9.96 6.45-10.01 0.01zM520.73 520.22c-0.57-12.03-18.73-12.15-18.78 0-0.05 12.15 18.21 12.04 18.78 0 0.3-6.41 10.31-6.44 10 0-0.5 10.52-8.48 19.39-19.39 19.39-10.56 0-19.35-8.86-19.39-19.39-0.04-10.53 8.89-19.39 19.39-19.39 10.91 0 18.89 8.87 19.39 19.39 0.31 6.44-9.69 6.42-10 0z"  horiz-adv-x="1024" />

    
    <glyph glyph-name="sousuo" unicode="&#58898;" d="M1012.363636-86.109091l-200.145454 200.145455c167.563636 181.527273 165.236364 465.454545-13.963637 642.327272C619.054545 937.890909 323.490909 937.890909 139.636364 756.363636c-179.2-181.527273-179.2-477.090909 0-658.618181 90.763636-90.763636 209.454545-134.981818 330.472727-134.981819 109.381818 0 223.418182 41.890909 309.527273 121.018182l200.145454-200.145454c9.309091-9.309091 23.272727-9.309091 32.581818 0 9.309091 6.981818 9.309091 20.945455 0 30.254545zM768 130.327273c-162.909091-162.909091-430.545455-162.909091-593.454545 0s-162.909091 432.872727 0 593.454545c81.454545 81.454545 188.509091 121.018182 295.563636 121.018182S686.545455 805.236364 768 723.781818c160.581818-160.581818 160.581818-430.545455 0-593.454545z"  horiz-adv-x="1024" />

    


  </font>
</defs>
</svg>
